<svg xmlns="http://www.w3.org/2000/svg" viewBox="0 0 1200 630" role="img" aria-label="computah social preview">
  <defs>
    <linearGradient id="bg" x1="0" x2="1" y1="0" y2="1">
      <stop offset="0" stop-color="#0d1117"/>
      <stop offset="1" stop-color="#071b2d"/>
    </linearGradient>
    <filter id="glow" x="-30%" y="-30%" width="160%" height="160%">
      <feGaussianBlur stdDeviation="18" result="blur"/>
      <feMerge><feMergeNode in="blur"/><feMergeNode in="SourceGraphic"/></feMerge>
    </filter>
  </defs>
  <rect width="1200" height="630" fill="url(#bg)"/>
  <circle cx="980" cy="120" r="210" fill="#1f6feb" opacity="0.18" filter="url(#glow)"/>
  <circle cx="100" cy="560" r="260" fill="#238636" opacity="0.16" filter="url(#glow)"/>
  <text x="88" y="132" fill="#7d8590" font-family="ui-monospace, SFMono-Regular, Menlo, Consolas, monospace" font-size="34">$ say the wake word</text>
  <text x="88" y="282" fill="#e6edf3" font-family="ui-monospace, SFMono-Regular, Menlo, Consolas, monospace" font-size="124" font-weight="700">computah</text>
  <rect x="790" y="190" width="18" height="96" rx="5" fill="#3fb950"/>
  <text x="92" y="370" fill="#9da7b3" font-family="Inter, ui-sans-serif, system-ui, sans-serif" font-size="40">a local voice assistant with a wake word you control</text>
  <g transform="translate(92 442)" fill="#58a6ff">
    <rect x="0" y="46" width="10" height="28" rx="5"/><rect x="26" y="24" width="10" height="50" rx="5"/><rect x="52" y="5" width="10" height="69" rx="5"/><rect x="78" y="31" width="10" height="43" rx="5"/><rect x="104" y="14" width="10" height="60" rx="5"/><rect x="130" y="44" width="10" height="30" rx="5"/><rect x="156" y="20" width="10" height="54" rx="5"/><rect x="182" y="7" width="10" height="67" rx="5"/><rect x="208" y="38" width="10" height="36" rx="5"/><rect x="234" y="18" width="10" height="56" rx="5"/><rect x="260" y="48" width="10" height="26" rx="5"/><rect x="286" y="28" width="10" height="46" rx="5"/>
  </g>
  <text x="92" y="562" fill="#7d8590" font-family="ui-monospace, SFMono-Regular, Menlo, Consolas, monospace" font-size="28">github.com/jamditis/computah</text>
</svg>
